<svg xmlns="http://www.w3.org/2000/svg" width="108.988" height="108.988" viewBox="0 0 108.988 108.988"><path d="M109.55,55.056A54.494,54.494,0,1,1,55.056.562,54.491,54.491,0,0,1,109.55,55.056ZM56.519,18.581c-11.975,0-19.612,5.044-25.61,14.01a2.64,2.64,0,0,0,.6,3.572l7.625,5.781a2.636,2.636,0,0,0,3.662-.466c3.925-4.979,6.617-7.866,12.591-7.866,4.489,0,10.041,2.889,10.041,7.242,0,3.291-2.717,4.981-7.149,7.466-5.169,2.9-12.009,6.5-12.009,15.526v.879A2.637,2.637,0,0,0,48.9,67.361H61.209a2.637,2.637,0,0,0,2.637-2.637v-.293c0-6.254,18.279-6.514,18.279-23.438C82.124,28.248,68.9,18.581,56.519,18.581ZM55.056,73.074A10.108,10.108,0,1,0,65.164,83.182,10.119,10.119,0,0,0,55.056,73.074Z" transform="translate(-0.563 -0.563)" fill="#fff"/></svg>