<svg xmlns="http://www.w3.org/2000/svg" width="117.007" height="117.026" viewBox="0 0 117.007 117.026"><path d="M84.748,11.981H22.4A10.734,10.734,0,0,0,11.686,22.7V66.11A10.71,10.71,0,0,0,22.4,76.8H58.078a3.074,3.074,0,0,1,2.138.9L77.94,94.046c.985.957,2.616.563,2.616-.816V78.995c0-1.688,1.069-2.223,2.757-2.223h.281c5.908,0,11.844-4.755,11.844-10.691V22.7A10.674,10.674,0,0,0,84.748,11.981Z" transform="translate(21.568 22.454)" fill="#fff"/><path d="M38.936,30.918H88.844V12.546a9.173,9.173,0,0,0-9.171-9.171H12.546a9.173,9.173,0,0,0-9.171,9.171V59.023a9.173,9.173,0,0,0,9.171,9.171H29.736V40.089A9.215,9.215,0,0,1,38.936,30.918Z" transform="translate(-3.375 -3.375)" fill="#fff"/></svg>