<svg xmlns="http://www.w3.org/2000/svg" width="724.27" height="429.644" viewBox="0 0 724.27 429.644"><g transform="translate(-1055.73 -263.057)"><g transform="translate(35.54 1)"><rect width="567" height="203" transform="translate(1098 270)" fill="#3e5b6e"/><rect width="567" height="170" transform="translate(1098 468)" fill="#fff"/><g transform="translate(1111.833 468)"><path d="M122.775,148.6h87.44s11.107-32.3,26.289,0l26.491.581,9.047,14.364,5.116-121.716,6.405,151.111,12.458-44.34,14.761.334s24.666-49.99,44.855.246l34.84.659c-26.366-13.491-41.957-35.692-39.063-57.246,3-22.335,25.812-43.718,40.39-41.281,13.679,2.285,16.2,24.89,26.3,24.461,9.811-.416,9.839-21.867,22.315-24.914,14.435-3.526,42.147,18.421,44.628,42.808,2.264,22.246-16.6,45.244-47.286,56.548h45.694" transform="translate(-26.52 -41.834)" fill="none" stroke="#ef4740" stroke-miterlimit="10" stroke-width="3"/><line x2="104.301" transform="translate(438.033 108.386)" fill="none" stroke="#ef4740" stroke-miterlimit="10" stroke-width="3"/><line x1="118.01" transform="translate(0 106.77)" fill="none" stroke="#ef4740" stroke-miterlimit="10" stroke-width="3"/></g><g transform="translate(1022 262.057)"><path d="M753.732,201.746H201.309c-9.75,0-17.654,8.418-17.654,18.8V593.567H771.387V220.548C771.387,210.164,763.483,201.746,753.732,201.746Zm-6.265,366.347H207.573V227.221H747.468Z" transform="translate(-116.691 -201.746)" fill="#4d4d4d"/><path d="M0,0H719a0,0,0,0,1,0,0V0a27.725,27.725,0,0,1-27.725,27.725H27.725A27.725,27.725,0,0,1,0,0V0A0,0,0,0,1,0,0Z" transform="translate(1 401.919)" fill="#4d4d4d"/><path d="M.336,392.142s-.959,22.789,9.111,27.252H715.652s10.8-3.819,8.644-27.25Z" transform="translate(-2.121)" fill="#919e9e"/><rect width="65.304" height="8.163" rx="0.95" transform="translate(328.178 401.814)" fill="#4d4d4d"/></g></g><text transform="translate(1164 408)" fill="#fff" font-size="92" font-family="HoboStd, Hobo Std"><tspan x="0" y="0">NUESTMAN</tspan></text><text transform="translate(1168 448)" fill="#fff" font-size="40" font-family="Poppins-Regular, Poppins" letter-spacing="0.9em"><tspan x="0" y="0">Tech Lab</tspan><tspan y="0" letter-spacing="0.15em">s.</tspan></text><text transform="translate(1168 504)" fill="#00cf7e" font-size="16" font-family="Poppins-Regular, Poppins" letter-spacing="0.08em"><tspan x="0" y="0">In todays tech-driven </tspan><tspan x="0" y="25">world, A healthy PC is a</tspan><tspan x="0" y="50">neccesity.</tspan></text></g></svg>