<svg xmlns="http://www.w3.org/2000/svg" width="1354.675" height="1366.961" viewBox="0 0 1354.675 1366.961"><g transform="translate(-696.703 -5267.494)"><path d="M1890.194,5885.636s9.287-214.762-258.875-234.5-322.971-74.343-387.238-124.076-213.6,23.288-309.62,92.836-138.327,188.987,33.62,454.233,276,115.652,276,115.652,100.193-22.816,260,113.123,272.537,102.783,345.479-16.578S1890.194,5885.636,1890.194,5885.636Z" transform="translate(-3967.808 2990.106) rotate(-48)" fill="#d2d8dc"/><g transform="translate(896.534 5567.297)"><path d="M739.66,492.741c-18.647,11.183-51.87,25.2-85.819,10.8l-21.946-9.309,43.978-49.3a210.034,210.034,0,1,1,63.787,47.813ZM655.4,303.494A174.541,174.541,0,0,0,710.97,431.911l12.131,11.4-27.674,31.021c14.415-2.925,26.97-10.723,33.336-15.252l8.735-6.216,9.395,5.162A176.343,176.343,0,0,0,831.6,479.693c97.157,0,176.2-79.043,176.2-176.2s-79.043-176.2-176.2-176.2-176.2,79.044-176.2,176.2Z" transform="translate(-158.035 -93.127)" fill="#3f3d56"/><path d="M638.315,303.494c0-106.747,86.536-193.283,193.283-193.283s193.283,86.536,193.283,193.283S938.346,496.777,831.6,496.777A192.4,192.4,0,0,1,738.666,473c-13.361,9.506-45.955,28.467-78.154,14.809l38.759-43.448a192.735,192.735,0,0,1-60.956-140.867Z" transform="translate(-158.035 -93.127)" fill="#00cf7e"/><path d="M991.955,303.912c0-100.989-77.456-183.874-176.2-192.523,5.63-.493,11.325-.76,17.083-.76,106.747,0,193.283,86.536,193.283,193.283S939.585,497.2,832.838,497.2c-5.749,0-11.435-.27-17.056-.762C914.512,487.771,991.955,404.892,991.955,303.912Z" transform="translate(-158.035 -93.127)" opacity="0.1"/><path d="M386.2,761.252A210.59,210.59,0,1,1,541.923,692.32l43.978,49.3-21.946,9.309c-33.95,14.4-67.172.388-85.819-10.8A210.857,210.857,0,0,1,386.2,761.252Zm0-386.566c-97.157,0-176.2,79.043-176.2,176.2s79.043,176.2,176.2,176.2a176.36,176.36,0,0,0,84.721-21.675l9.379-5.154,8.735,6.216C495.4,711,507.955,718.8,522.37,721.725L494.7,690.7l12.131-11.4A174.541,174.541,0,0,0,562.4,550.886C562.4,453.729,483.355,374.686,386.2,374.686Z" transform="translate(-158.035 -93.127)" fill="#3f3d56"/><path d="M579.481,550.885c0-106.747-86.536-193.283-193.283-193.283S192.915,444.138,192.915,550.885,279.451,744.168,386.2,744.168a192.4,192.4,0,0,0,92.932-23.776c13.361,9.506,45.955,28.468,78.154,14.809l-38.759-43.448A192.735,192.735,0,0,0,579.481,550.885Z" transform="translate(-158.035 -93.127)" fill="#9db4c5"/><path d="M227.081,549.909c0-100.989,77.456-183.874,176.2-192.523-5.63-.493-11.325-.76-17.083-.76-106.747,0-193.283,86.536-193.283,193.283S279.451,743.192,386.2,743.192c5.749,0,11.435-.27,17.056-.762C304.523,733.768,227.081,650.889,227.081,549.909Z" transform="translate(-158.035 -93.127)" opacity="0.1"/><path d="M876.973,242.088c-12.646-21.368-37.666-22.364-37.666-22.364s-24.38-3.118-40.02,29.426c-14.577,30.334-34.7,59.621-3.239,66.722l5.682-17.685,3.519,19a123.086,123.086,0,0,0,13.459.23c33.688-1.088,65.771.318,64.738-11.77C882.074,289.578,889.141,262.648,876.973,242.088Z" transform="translate(-158.035 -93.127)" fill="#2f2e41"/><path d="M794.253,429.219a49.887,49.887,0,0,1-1.613,6.944c-.791,2.225-2.013,4.283-2.737,6.531-2.306,7.166.891,15.156,6,20.688a33.758,33.758,0,0,0,16.459,9.773,67.152,67.152,0,0,0,14.145,1.486c13.146.446,26.631.845,39.088-3.38a67.917,67.917,0,0,0,11.356-5.159,8.5,8.5,0,0,0,2.947-2.32,8.109,8.109,0,0,0,1.063-4.76c-.028-5.573-1.158-11.118-.889-16.685.149-3.083.726-6.164.442-9.238a17.043,17.043,0,0,0-13.025-14.681c-3.534-.759-7.2-.345-10.8,0a275.267,275.267,0,0,1-28.1,1.256c-9.586-.061-19.112-1.524-28.65-1.677-2.821-.045-2.764.824-3.662,3.554A66.491,66.491,0,0,0,794.253,429.219Z" transform="translate(-158.035 -93.127)" fill="#2f2e41"/><path d="M821.456,291.605c-.461,2.412-.959,4.912-2.408,6.894-1.668,2.281-4.387,3.584-6.181,5.766-2.7,3.285-2.855,7.908-2.867,12.16-.01,3.917.069,8.1,2.254,11.348a19.832,19.832,0,0,0,5.684,5.011c8.193,5.521,17.046,11.141,26.924,11.323,4.093.075,8.481-.982,11.174-4.064a16.776,16.776,0,0,0,2.705-4.827,64.094,64.094,0,0,0,4.537-19.512,22.912,22.912,0,0,0-.864-9.373c-1.2-3.346-3.626-6.1-5.23-9.271a20.637,20.637,0,0,1-1.987-12.212,1.319,1.319,0,0,0-.07-.885,1.289,1.289,0,0,0-1.062-.431l-19.586-1.41a42.624,42.624,0,0,1-5.438-.622c-1.056-.215-3.845-1.714-4.851-1.316C822.327,280.924,821.838,289.605,821.456,291.605Z" transform="translate(-158.035 -93.127)" fill="#a0616a"/><path d="M821.456,292.217c-.461,2.412-.959,4.912-2.408,6.894-1.668,2.28-4.387,3.584-6.181,5.766-2.7,3.285-2.855,7.908-2.867,12.16-.01,3.917.069,8.1,2.254,11.348a19.832,19.832,0,0,0,5.683,5.011c8.193,5.521,17.046,11.141,26.924,11.323,4.093.075,8.481-.982,11.174-4.064a16.778,16.778,0,0,0,2.705-4.827,64.1,64.1,0,0,0,4.537-19.512,22.912,22.912,0,0,0-.864-9.373c-1.2-3.346-3.626-6.1-5.23-9.271A20.638,20.638,0,0,1,855.2,285.46a1.319,1.319,0,0,0-.07-.885,1.289,1.289,0,0,0-1.062-.43l-19.586-1.41a42.621,42.621,0,0,1-5.438-.622c-1.056-.215-3.845-1.714-4.851-1.315C822.327,281.535,821.838,290.217,821.456,292.217Z" transform="translate(-158.035 -93.127)" opacity="0.1"/><circle cx="28.735" cy="28.735" r="28.735" transform="translate(653.416 143.635)" fill="#a0616a"/><path d="M825.486,329.856a17.625,17.625,0,0,0,5.047,4.033,15.859,15.859,0,0,0,6.305,1.2c5.18.146,10.795-.8,14.4-4.527,4.645-4.8,4.492-12.543,8.133-18.143a4.042,4.042,0,0,1,1.173-1.283,3.8,3.8,0,0,1,2-.459c4.6-.043,8.6,2.939,12.219,5.781a16.1,16.1,0,0,1,4.3,4.381,14.85,14.85,0,0,1,1.45,4.441c1.794,8.757,2.375,17.711,2.951,26.631.318,4.927.637,9.859.613,14.8-.078,16.266-3.859,32.26-7.618,48.086-.484,2.039-1.147,4.318-3,5.3a7.4,7.4,0,0,1-2.619.639c-10.769,1.265-21.559,2.531-32.4,2.7q-6.346.1-12.687-.307a6.834,6.834,0,0,1-2.137-.373,6.027,6.027,0,0,1-2.33-1.979c-5.864-7.39-6.21-17.606-6.173-27.04q.137-34.6,2.472-69.138c.129-1.9.157-4.209-1.213-5.7a71.406,71.406,0,0,0,9.122,10.97Z" transform="translate(-158.035 -93.127)" fill="#fff"/><path d="M819.4,296.677c-.971,1.757-8.126,6.119-9.507,7.575-7.718,8.135-21.8,7.83-28.863,16.543-2.483,3.066-3.774,6.918-4.723,10.747-1.342,5.416-2.059,11.323.19,16.43,2.163,4.914,6.718,8.311,9.81,12.7,3.4,4.82,4.921,10.672,6.384,16.383,1.08,4.217,2.169,8.538,1.748,12.871-.478,4.926-2.862,9.436-4.269,14.181s-1.65,10.4,1.6,14.125c2.391,2.739,6.141,3.826,9.725,4.436a111.733,111.733,0,0,0,13.861,1.207c4.1.181,8.614.216,11.764-2.41,2.485-2.073,3.566-5.436,3.705-8.669s-.533-6.438-.954-9.646c-.437-3.326-.6-6.681-.745-10.033q-.945-22.559-.258-45.147a38.421,38.421,0,0,0-.457-9.368c-.879-4.028-3.056-7.628-4.872-11.329a42.873,42.873,0,0,1-4.754-22.648C819.338,296.566,822.853,290.426,819.4,296.677Z" transform="translate(-158.035 -93.127)" fill="#fff"/><path d="M859.751,297.289c1.478,1.519,6.5,2.02,8.382,3a29.366,29.366,0,0,0,5.51,1.908A71.531,71.531,0,0,1,893,311.079a11.746,11.746,0,0,1,3.237,2.8,12.815,12.815,0,0,1,1.791,5.056c.921,4.561,1.846,9.177,1.639,13.825-.22,4.934-1.706,9.713-3.18,14.427L890.976,364.8c-4.112,13.147-8.251,26.424-9.408,40.151a94.443,94.443,0,0,0,.848,22.8,2.7,2.7,0,0,1-.278,2.209,2.175,2.175,0,0,1-1.349.621c-2.659.416-5.232-.94-7.642-2.14a84.62,84.62,0,0,0-23.327-7.633,54.232,54.232,0,0,0,7.245-14.936,90.4,90.4,0,0,0,2.189-10.272l2.563-14.823a145.642,145.642,0,0,0,2.2-16.392,20.52,20.52,0,0,0-.357-6.175,29.954,29.954,0,0,0-2.341-5.569c-4.224-8.786-6.206-18.812-4.544-28.418.727-4.2,2.141-8.413,1.551-12.638-.567-4.062.022-7.22-1.02-11.24C853.025,283.838,856.97,294.43,859.751,297.289Z" transform="translate(-158.035 -93.127)" fill="#fff"/><path d="M780.956,334.687c-1.926,4-5.145,7.4-6.241,11.7a25.557,25.557,0,0,0-.544,6.114,29.041,29.041,0,0,0,.907,9.194c.612,1.9,1.606,3.643,2.323,5.5a19.949,19.949,0,0,1,1.307,8.151c-.193,3.849-1.5,7.585-1.6,11.438-.161,6.058,2.641,11.754,5.376,17.162a12.617,12.617,0,0,1,18.339-6,3.761,3.761,0,0,0,.827-2.742q.3-10.543.585-21.086c.3-10.871.578-21.887-1.923-32.471-1.129-4.778-2.886-9.538-6.107-13.245-1.7-1.952-7.453-7.092-10.237-4.906-1.252.983-.959,3.659-1.158,5.015a21.276,21.276,0,0,1-1.852,6.18Z" transform="translate(-158.035 -93.127)" fill="#fff"/><path d="M900.228,323.172a29.408,29.408,0,0,1,.983,8.845q.055,9.114-.242,18.226a33.978,33.978,0,0,1-1.184,9.227c-.622,1.955-1.581,3.789-2.224,5.738-1.925,5.841-.873,12.175-.708,18.323a20.82,20.82,0,0,1-.5,5.927c-1.016,3.811-3.745,6.89-5.65,10.343-1.809,3.28-2.9,6.956-5.062,10.015s-5.9,5.484-9.528,4.544c-2.747-.712-4.7-3.143-6.05-5.64a27.662,27.662,0,0,1-2.86-17.943c1.356-7.461,5.738-14.08,7.319-21.5,2.17-10.185-1.128-20.695-1.03-31.108a15.036,15.036,0,0,1,.655-4.822c.829-2.378,2.61-4.278,4.255-6.186a78.093,78.093,0,0,0,5.718-7.5c1.178-1.756,2.777-6.273,4.865-6.649C893.643,312.174,899.072,319.571,900.228,323.172Z" transform="translate(-158.035 -93.127)" fill="#fff"/><path d="M756.77,424.689a28.361,28.361,0,0,0-7.89-.839A19.692,19.692,0,0,0,730.6,447.064a33.077,33.077,0,0,0,3.126,8.543c2.092,4.246,4.6,8.483,8.475,11.2a33.01,33.01,0,0,0,7.48,3.56l20.4,7.685c3,1.131,6,2.261,9.034,3.31a176.7,176.7,0,0,0,47.185,9.38A51.092,51.092,0,0,0,840.95,490a4.769,4.769,0,0,0,3-1.621,5.139,5.139,0,0,0,.67-2.214l1.255-8.788a7.36,7.36,0,0,0-.107-3.7c-.575-1.477-2.017-2.406-3.391-3.2-13.412-7.7-29.073-11.953-40.362-22.526-2.658-2.489-4.882-6.434-8.111-8.125-3.662-1.917-7.974-3.012-11.759-4.778C773.872,431.189,765.737,426.751,756.77,424.689Z" transform="translate(-158.035 -93.127)" fill="#2f2e41"/><path d="M777.137,436.538c7.211,2.26,37.655,17.914,42.874,23.379-.7.252-24.432-13.048-25.144-13.262a143.386,143.386,0,0,1-19.129-6.742c-1.237-.572-8.034-3.26-7.726-4.821C768.359,433.333,775.857,436.136,777.137,436.538Z" transform="translate(-158.035 -93.127)" opacity="0.1"/><path d="M867.1,495.3a1.694,1.694,0,0,0,1.143-.336,1.765,1.765,0,0,0,.357-1.315l-.034-11.973c-3.443-1.64-7.294-2.166-11.074-2.671l-17.638-2.358c.405.054-2.758,7.6-2.273,8.6.855,1.775,7.387,3.348,9.231,4.186C853.22,492.353,859.88,495.556,867.1,495.3Z" transform="translate(-158.035 -93.127)" fill="#a0616a"/><path d="M811.76,481.639c-3.33.53-7.047,1-9.2,3.592-2.735,3.287-1.571,8.188-.266,12.26a3.975,3.975,0,0,0,4.637,3.317c3.037.192,6.269.343,8.923-1.147a39.1,39.1,0,0,0,3.466-2.576,22.225,22.225,0,0,1,6.373-2.914,64.442,64.442,0,0,1,12.792-2.636,19.9,19.9,0,0,0,5.039-.888,5.584,5.584,0,0,0,3.549-3.446c.615-2.176-.65-4.394-1.863-6.3a25.143,25.143,0,0,0-5.364-6.63c-3.286-2.553-4.912-.593-8.223,1.04a69.764,69.764,0,0,1-19.86,6.329Z" transform="translate(-158.035 -93.127)" fill="#a0616a"/><path d="M803.057,484.638l-21.145-6.25a27.988,27.988,0,0,0-7.869-1.525,9.447,9.447,0,0,0-7.226,2.922c-1.64,1.924-2.109,4.555-2.518,7.049l-.874,5.337a26.8,26.8,0,0,0-.49,8.2,9.062,9.062,0,0,0,4.2,6.752c2.926,1.6,6.512.817,9.778.149a106.45,106.45,0,0,1,20.038-2.149c2.531-.03,5.186,0,7.422-1.184a9.267,9.267,0,0,0,4.522-7.384C809.313,491.993,807.793,486.038,803.057,484.638Z" transform="translate(-158.035 -93.127)" fill="#2f2e41"/><path d="M875.41,479.192c2.741-.48,5.16-2.038,7.787-2.958,3.7-1.294,7.7-1.294,11.621-1.28a7.46,7.46,0,0,1,4.166.834c1.725,1.149,2.168,3.447,2.461,5.5l1.77,12.38a19.425,19.425,0,0,1,.145,7.014c-.519,2.294-2.083,4.506-4.36,5.1-2.765.719-5.476-1.047-8.086-2.208-6.525-2.9-14.11-2.159-20.914-4.326a4.687,4.687,0,0,1-3.13-2.238,5.091,5.091,0,0,1-.244-2.139c.117-3.979-.723-9.413.475-13.216C868.178,478.231,872.35,479.192,875.41,479.192Z" transform="translate(-158.035 -93.127)" fill="#2f2e41"/><path d="M920.157,419.706a36.719,36.719,0,0,1,12.935-.884c3.458.381,7.021,1.343,9.546,3.737,3.073,2.913,4.06,7.419,4.143,11.652a36.4,36.4,0,0,1-7.912,23.249,21.1,21.1,0,0,1-4.524,4.355,29.777,29.777,0,0,1-5.886,2.836l-45.687,18.02c-12.019,4.741-24.081,9.5-36.618,12.621a2.854,2.854,0,0,1-3.84-1.392A94.653,94.653,0,0,1,832.3,475.583a1.234,1.234,0,0,1,.546-1.946L865.16,455.07a32.678,32.678,0,0,0,6.577-4.532,16.328,16.328,0,0,0,3.377-4.7c.67-1.4.732-4.7,1.588-5.735.838-1.013,3.7-1.093,5.027-1.492a45.615,45.615,0,0,0,5.473-2.069c7.229-3.234,13.666-7.932,20.6-11.719A52.843,52.843,0,0,1,920.157,419.706Z" transform="translate(-158.035 -93.127)" fill="#2f2e41"/><path d="M901.838,433.572c-5.552,4.17-12.74,8-18.243,12.283-1.878,1.461-33.183,19.061-33.626,21.4,5.133.865,37.834-22.012,42.513-24.294s8.826-5.5,12.936-8.7c1.047-.814,5.486-3.262,2.479-4.172C906.2,429.577,903.088,432.739,901.838,433.572Z" transform="translate(-158.035 -93.127)" opacity="0.1"/><path d="M863.637,297.693H814.9a7.465,7.465,0,0,0-7.466,7.465v2.734h-.53v6.114h.53v4.28h-.53v3.668h.53v45.111a7.466,7.466,0,0,0,7.466,7.466h48.735a7.465,7.465,0,0,0,7.466-7.465V305.158a7.465,7.465,0,0,0-7.465-7.465Z" transform="translate(-158.035 -93.127)" fill="#d0cde1"/><path d="M713.347,146.9l-24.718-12.948-34.135,5.3-7.062,31.192,17.58-.677,4.911-11.459v11.271l8.112-.312,4.708-18.245,2.943,19.422,28.838-.589Z" fill="#2f2e41"/><path d="M787.423,415.666a12.844,12.844,0,0,0,4.614,4.59,9.023,9.023,0,0,0,7.931-.213,13.962,13.962,0,0,0,5.724-5.739c2.686-4.744,3.243-10.42,2.907-15.861s-1.5-10.8-2.011-16.226c-.374-3.945-.4-7.914-.434-11.877a3.95,3.95,0,0,1,.5-2.4,4.716,4.716,0,0,1,2.65-1.323c5.422-1.611,9.02-6.693,11.6-11.726,1.723-3.361,3.221-7.035,2.889-10.8s-3.036-7.552-6.793-7.936c-3.1-.316-5.957,1.651-8.192,3.819a35.126,35.126,0,0,0-10.285,20.556c-.49,3.825-.35,7.754-1.39,11.468-2.221,7.929-9.172,12.79-12.636,19.925C780.679,399.785,782.786,408.71,787.423,415.666Z" transform="translate(-158.035 -93.127)" fill="#a0616a"/><path d="M889.7,385.375a14.985,14.985,0,0,1-8.4,8.074,11.606,11.606,0,0,1-7.3.447,8.1,8.1,0,0,1-5.351-4.787,12.893,12.893,0,0,1-.6-3.6c-.348-5.347-.213-10.857,1.729-15.85.749-1.926,1.759-3.753,2.35-5.733a28.756,28.756,0,0,0,.885-7l.639-14.589a9.493,9.493,0,0,0-.217-3.163c-.637-2.111-2.61-3.483-4.42-4.742-4.372-3.04-8.692-6.588-10.81-11.473a8.046,8.046,0,0,1-.747-4.752c.6-2.9,3.521-4.772,6.411-5.4a14.339,14.339,0,0,1,17.191,11.555c.286,1.646.282,3.328.449,4.991.355,3.527,1.475,6.927,2.175,10.4,1.725,8.559.831,17.407,2.537,25.965C887.64,372.877,893.019,377.546,889.7,385.375Z" transform="translate(-158.035 -93.127)" fill="#a0616a"/><circle cx="6.114" cy="6.114" r="6.114" transform="translate(675.772 225.158)" fill="#6afbc2"/><circle cx="18.035" cy="18.035" r="18.035" transform="translate(0.002 414.934)" fill="#2f2e41"/><path d="M83.411,486.51l-9.084-8.83-18.241,5.666,1.752,21.121,37.506-1.742L83.822,487.069Z" fill="#fbbebe"/><circle cx="29.158" cy="29.158" r="29.158" transform="translate(34.386 428.013)" fill="#fbbebe"/><path d="M402.592,617.061s35.821,61.559,44.346,70.8a154.758,154.758,0,0,0,12.935,12.892s-4.008,13.293-10.391,12.819a30.039,30.039,0,0,1-10.529-2.595s-2.849-7.385-7.818-10.624-45.568-43.18-44.619-55.946S402.592,617.061,402.592,617.061Z" transform="translate(-158.035 -93.127)" fill="#2f2e41"/><path d="M275.023,704.908s38.193,29.644,90.1,1.789l4.473-3.292s-7.549,16.982-8.249,21.586c-.812,5.338-20.466,36.61-23.673,38.108s-3.914,2.88-3.914,2.88l13.61,14.981,5.032-3.7s19.622-27.8,25.361-32.886,33.082-57.531,33.082-57.531,10.454-19.761-15.636-21.247-38.1,5.625-38.1,5.625l-46.3,7.356Z" transform="translate(-158.035 -93.127)" fill="#2f2e41"/><path d="M460.316,697.841l19.318,13.366s24.646,7.722,9.464,12.86-55.188,7-56.1-.092,1.578-18.249,3.574-17.638S452.425,710.544,460.316,697.841Z" transform="translate(-158.035 -93.127)" fill="#2f2e41"/><path d="M354.111,772.666l3.576,19.635s10.167,19.444-2.04,13.411S318.289,776.762,322,771.958s11.911-10.015,12.743-8.449S341.739,775.556,354.111,772.666Z" transform="translate(-158.035 -93.127)" fill="#2f2e41"/><path d="M317.275,685.019s-25.963,30.312-41.725,22.949S195.3,615.32,202.664,599.558,212.5,587.15,212.5,587.15l33.3,3.079-9.58-15.361s4.473-3.292,8.736,1.329,21.375,16.162,27.337,32.462,23.464,15.487,23.464,15.487Z" transform="translate(-158.035 -93.127)" fill="#fff"/><path d="M264.085,529.388l-45,47.773-40.316-71.18,38.327-46.307Z" fill="#3f3d56"/><path d="M260.688,528.871,220.04,570.852,183.206,506.16l33.78-42.529Z" fill="#fff"/><path d="M216.875,575.336l2.205,1.825-1.414,2.764-62.931,18.73-.6-2.156L157,593.538Z" fill="#b3b3b3"/><path d="M219.639,576.75l-65.167,20.375-39.725-75.063,64.017-16.081Z" fill="#d0cde1"/><path d="M214.733,566.569l-2.8,2.057-31.03-53.878,3.207-1.5Z" fill="#3f3d56"/><path d="M208.318,569.565l-27.567,8.22-31.294-55.408,27.272-6.278Z" fill="#3f3d56"/><path d="M288.692,621.582l5.708-1.614s31.83-3.6,32.294,6.4-36.567,5.361-36.567,5.361l-4.938-6.71Z" transform="translate(-158.035 -93.127)" fill="#fbbebe"/><path d="M316.61,666.546l7.944-3.26s23.98-10.752,17.1-17.757-28.095,5.16-28.095,5.16L309.5,654.54Z" transform="translate(-158.035 -93.127)" fill="#fbbebe"/><path d="M309.53,651.069s12.935,12.892,9.992,15.92-51.209,42.857-63.173,30.113-70.257-76.728-47.575-82.215,28.676,7.342,28.676,7.342l29.944,51.23Z" transform="translate(-158.035 -93.127)" fill="#fff"/><path d="M112.763,518.781l21.248,7.205-.347,15.34L111.192,538.9Z" fill="#fff"/><path d="M131.914,565.887l-22.893,13.4L82.865,539.06,108.113,572.2Z" opacity="0.2"/><circle cx="34.712" cy="34.712" r="34.712" transform="translate(16.034 414.006)" fill="#2f2e41"/><path d="M238.3,532.417l-24.305-35.555,10.3-12.754,25.255,36.58Z" fill="#6afbc2"/><path d="M237.615,546.712l-37-53.793,1.825-2.205,36.829,53.92Z" fill="#e6e6e6"/><path d="M232.847,551.945l-37-53.793,1.825-2.205L234.5,549.868Z" fill="#e6e6e6"/><path d="M228.785,555.8l-37-53.793,1.825-2.2,36.829,53.921Z" fill="#e6e6e6"/><path d="M66.117,425.544H76.855a20.5,20.5,0,0,1,20.5,20.5H66.117Z" fill="#2f2e41"/><path d="M372.067,505.626l-1.947-.145c-.076,1.012-.13,2.03-.194,3.046l-8.738-.293,9.166,17.175,10.294-16.524-8.77-.294C371.941,507.6,371.993,506.612,372.067,505.626Z" transform="translate(-158.035 -93.127)" fill="#ef4740"/><path d="M423.317,365.625l1.552,1.185c2.328-3.049,4.759-6.093,7.227-9.047l-1.5-1.252C428.111,359.488,425.662,362.554,423.317,365.625Z" transform="translate(-158.035 -93.127)" fill="#ef4740"/><path d="M438.272,347.728l1.441,1.316c2.59-2.837,5.279-5.654,7.992-8.374l-1.382-1.379C443.59,342.032,440.881,344.87,438.272,347.728Z" transform="translate(-158.035 -93.127)" fill="#ef4740"/><path d="M454.736,331.219l1.32,1.439c2.833-2.6,5.757-5.17,8.693-7.636l-1.255-1.495C460.536,326.011,457.59,328.6,454.736,331.219Z" transform="translate(-158.035 -93.127)" fill="#ef4740"/><path d="M409.991,384.779l1.65,1.043c2.052-3.246,4.207-6.494,6.4-9.653l-1.6-1.115C414.229,378.236,412.058,381.508,409.991,384.779Z" transform="translate(-158.035 -93.127)" fill="#ef4740"/><path d="M472.579,316.227l1.189,1.548c3.051-2.342,6.189-4.644,9.328-6.84l-1.119-1.6C478.813,311.549,475.652,313.867,472.579,316.227Z" transform="translate(-158.035 -93.127)" fill="#ef4740"/><path d="M398.406,405.043l1.736.892c1.759-3.42,3.619-6.848,5.528-10.185l-1.7-.97C402.051,398.143,400.178,401.6,398.406,405.043Z" transform="translate(-158.035 -93.127)" fill="#ef4740"/><path d="M379.574,460l-1.89-.487c-.965,3.746-1.858,7.566-2.655,11.354l1.91.4C377.731,467.507,378.617,463.715,379.574,460Z" transform="translate(-158.035 -93.127)" fill="#ef4740"/><path d="M491.665,302.867l1.048,1.647c3.236-2.059,6.563-4.074,9.889-5.989l-.974-1.692C498.276,298.763,494.925,300.793,491.665,302.867Z" transform="translate(-158.035 -93.127)" fill="#ef4740"/><path d="M374.808,482.643l-1.927-.316c-.627,3.811-1.177,7.7-1.636,11.543l1.939.231C373.64,490.282,374.186,486.427,374.808,482.643Z" transform="translate(-158.035 -93.127)" fill="#ef4740"/><path d="M388.661,426.266l1.808.735c1.448-3.563,3-7.144,4.6-10.642l-1.774-.815C391.679,419.069,390.119,422.677,388.661,426.266Z" transform="translate(-158.035 -93.127)" fill="#ef4740"/><path d="M380.841,448.286l1.868.57c1.126-3.684,2.349-7.39,3.637-11.016l-1.84-.653C383.208,440.84,381.975,444.574,380.841,448.286Z" transform="translate(-158.035 -93.127)" fill="#ef4740"/><path d="M623.732,263.954c3.828-.133,7.725-.185,11.58-.149l.017-1.952c-3.882-.036-7.809.017-11.664.15Z" transform="translate(-158.035 -93.127)" fill="#ef4740"/><path d="M511.845,291.25l.9,1.733c3.409-1.766,6.9-3.478,10.374-5.088l-.821-1.771C518.8,287.745,515.279,289.47,511.845,291.25Z" transform="translate(-158.035 -93.127)" fill="#ef4740"/><path d="M669.93,266.388c3.808.539,7.652,1.17,11.424,1.876l.358-1.919c-3.8-.711-7.672-1.347-11.51-1.89Z" transform="translate(-158.035 -93.127)" fill="#ef4740"/><path d="M692.685,270.645c3.739.873,7.512,1.844,11.213,2.884l.528-1.88c-3.728-1.048-7.529-2.025-11.3-2.905Z" transform="translate(-158.035 -93.127)" fill="#ef4740"/><path d="M714.969,276.91c3.645,1.2,7.317,2.5,10.911,3.871l.694-1.825c-3.622-1.377-7.319-2.689-10.992-3.9Z" transform="translate(-158.035 -93.127)" fill="#ef4740"/><path d="M646.886,264.159c3.845.2,7.729.491,11.547.86l.189-1.943c-3.847-.372-7.761-.664-11.633-.867Z" transform="translate(-158.035 -93.127)" fill="#ef4740"/><path d="M600.423,263.829l.238,1.938c3.8-.468,7.679-.858,11.514-1.16l-.153-1.947C608.158,262.964,604.256,263.357,600.423,263.829Z" transform="translate(-158.035 -93.127)" fill="#ef4740"/><path d="M554.878,273.6l.578,1.865c3.669-1.136,7.413-2.2,11.129-3.176l-.494-1.888C562.347,271.375,558.574,272.451,554.878,273.6Z" transform="translate(-158.035 -93.127)" fill="#ef4740"/><path d="M532.961,281.468l.741,1.806c3.55-1.457,7.175-2.851,10.777-4.145l-.66-1.837C540.19,278.6,536.537,280,532.961,281.468Z" transform="translate(-158.035 -93.127)" fill="#ef4740"/><path d="M577.434,267.7l.409,1.909c3.751-.8,7.575-1.536,11.367-2.174l-.324-1.926C585.066,266.152,581.212,266.888,577.434,267.7Z" transform="translate(-158.035 -93.127)" fill="#ef4740"/><path d="M755.01,292.853,744.1,276.729l-3.836,7.9c-.929-.415-1.852-.838-2.78-1.24l-.776,1.792c.906.392,1.8.8,2.7,1.2l-3.818,7.859Z" transform="translate(-158.035 -93.127)" fill="#ef4740"/></g></g></svg>