<svg xmlns="http://www.w3.org/2000/svg" width="170.647" height="125.647" viewBox="0 0 170.647 125.647"><g transform="translate(-797.353 -5285.487)"><path d="M22.258,42.714A74.312,74.312,0,0,0,54.586,75.042L65.378,64.25a4.877,4.877,0,0,1,5-1.177,55.958,55.958,0,0,0,17.513,2.8A4.92,4.92,0,0,1,92.8,70.774v17.12A4.92,4.92,0,0,1,87.894,92.8,83.387,83.387,0,0,1,4.5,9.406,4.92,4.92,0,0,1,9.406,4.5H26.575a4.92,4.92,0,0,1,4.906,4.906,55.729,55.729,0,0,0,2.8,17.513,4.923,4.923,0,0,1-1.226,5L22.258,42.714Z" transform="translate(792.699 5318.548) rotate(-2)" fill="#fff"/><path d="M34.5,2.25C15.445,2.25,0,14.8,0,30.282A24.881,24.881,0,0,0,7.682,47.9C6,54.69.364,60.741.3,60.808a1.071,1.071,0,0,0-.2,1.173,1.055,1.055,0,0,0,.984.647A30.821,30.821,0,0,0,20.027,55.7,41.1,41.1,0,0,0,34.5,58.315c19.057,0,34.5-12.547,34.5-28.032S53.558,2.25,34.5,2.25ZM17.278,38.908H15.633a1.081,1.081,0,0,1-1.078-1.078V35.673A1.081,1.081,0,0,1,15.633,34.6h1.658c.809,0,1.4-.472,1.4-.889a.713.713,0,0,0-.283-.512L15.458,30.66a4.982,4.982,0,0,1-1.792-3.787,5.479,5.479,0,0,1,5.714-5.2h1.644A1.081,1.081,0,0,1,22.1,22.749v2.156a1.081,1.081,0,0,1-1.078,1.078H19.367c-.809,0-1.4.472-1.4.889a.713.713,0,0,0,.283.512L21.2,29.919a4.982,4.982,0,0,1,1.792,3.787A5.471,5.471,0,0,1,17.278,38.908ZM43.127,37.83a1.081,1.081,0,0,1-1.078,1.078H39.892a1.081,1.081,0,0,1-1.078-1.078V28.638l-3.342,7.52a1.077,1.077,0,0,1-1.927,0l-3.356-7.52V37.83a1.081,1.081,0,0,1-1.078,1.078H26.954a1.081,1.081,0,0,1-1.078-1.078V23.813a2.163,2.163,0,0,1,2.156-2.156h2.156a2.146,2.146,0,0,1,1.927,1.186L34.5,27.614l2.385-4.771a2.161,2.161,0,0,1,1.927-1.186h2.156a2.163,2.163,0,0,1,2.156,2.156Zm6.509,1.078H47.979A1.081,1.081,0,0,1,46.9,37.83V35.673A1.081,1.081,0,0,1,47.979,34.6h1.658c.809,0,1.4-.472,1.4-.889a.713.713,0,0,0-.283-.512L47.8,30.66a4.982,4.982,0,0,1-1.792-3.787,5.479,5.479,0,0,1,5.714-5.2H53.37a1.081,1.081,0,0,1,1.078,1.078v2.156a1.081,1.081,0,0,1-1.078,1.078H51.712c-.809,0-1.4.472-1.4.889a.713.713,0,0,0,.283.512l2.952,2.534a4.982,4.982,0,0,1,1.792,3.787A5.458,5.458,0,0,1,49.636,38.908Z" transform="translate(899.209 5323.184) rotate(3)" fill="#fff"/><path d="M35.754,2.25A32.186,32.186,0,0,0,3.445,34.31,31.729,31.729,0,0,0,8.081,50.865L2.25,68.065l17.888-5.683A32.364,32.364,0,0,0,68.065,34.31,32.185,32.185,0,0,0,35.754,2.25ZM51.821,46.486c-.76,1.884-4.2,3.6-5.715,3.683s-1.558,1.174-9.819-2.414S23.057,35.437,22.665,34.875s-3.2-4.561-3.048-8.588a9.155,9.155,0,0,1,3.144-6.717A3.164,3.164,0,0,1,25,18.628c.651-.011,1.072-.019,1.553,0s1.2-.1,1.829,1.563,2.122,5.752,2.313,6.169a1.5,1.5,0,0,1,.015,1.435,5.611,5.611,0,0,1-.876,1.334c-.431.462-.907,1.035-1.292,1.388-.429.392-.877.819-.426,1.656a24.724,24.724,0,0,0,4.375,5.838,22.543,22.543,0,0,0,6.478,4.307c.81.441,1.294.392,1.8-.136s2.151-2.313,2.732-3.11,1.125-.642,1.872-.342S50.094,41.16,50.9,41.6s1.351.665,1.544,1.014A6.785,6.785,0,0,1,51.821,46.486Z" transform="translate(833.75 5283.237)" fill="#fff"/></g></svg>