<svg xmlns="http://www.w3.org/2000/svg" width="221.373" height="34.875" viewBox="0 0 221.373 34.875"><g transform="translate(-988.67 -3583)"><path d="M17.438.563A17.438,17.438,0,1,0,34.875,18,17.434,17.434,0,0,0,17.438.563Zm5.625,11.813a2.25,2.25,0,1,1-2.25,2.25A2.248,2.248,0,0,1,23.063,12.375Zm-11.25,0a2.25,2.25,0,1,1-2.25,2.25A2.248,2.248,0,0,1,11.813,12.375Zm13.7,11.967a10.5,10.5,0,0,1-16.144,0A1.126,1.126,0,0,1,11.1,22.9a8.262,8.262,0,0,0,12.684,0A1.126,1.126,0,0,1,25.509,24.342Z" transform="translate(988.67 3582.438)" fill="#ee4e07"/><path d="M17.438.563A17.438,17.438,0,1,0,34.875,18,17.434,17.434,0,0,0,17.438.563ZM7.875,15.708c.232-2.96,2.264-5.02,3.938-5.02s3.705,2.06,3.938,5.02a.56.56,0,0,1-1.048.316l-.668-1.2A2.63,2.63,0,0,0,11.82,13.31,2.63,2.63,0,0,0,9.6,14.829l-.668,1.2a.569.569,0,0,1-1.062-.316Zm17.634,8.634a10.5,10.5,0,0,1-16.144,0A1.126,1.126,0,0,1,11.1,22.9a8.262,8.262,0,0,0,12.684,0,1.126,1.126,0,0,1,1.73,1.441Zm.436-8.318-.668-1.2a2.63,2.63,0,0,0-2.215-1.519,2.63,2.63,0,0,0-2.215,1.519l-.668,1.2a.562.562,0,0,1-1.048-.316c.232-2.96,2.264-5.02,3.938-5.02s3.705,2.06,3.938,5.02A.569.569,0,0,1,25.945,16.024Z" transform="translate(1081.919 3582.438)" fill="#00cf7e"/><path d="M0,18A17.438,17.438,0,1,0,17.438.563,17.434,17.434,0,0,0,0,18Zm14.063-3.375a2.25,2.25,0,1,1-2.25-2.25A2.248,2.248,0,0,1,14.063,14.625Zm11.145,1.16a3.651,3.651,0,0,0-4.289,0l-.668.6a.842.842,0,0,1-1.392-.759c.281-1.772,2.4-2.96,4.212-2.96s3.93,1.188,4.212,2.96a.842.842,0,0,1-1.392.759ZM11.1,22.908a8.262,8.262,0,0,0,12.684,0,1.126,1.126,0,0,1,1.73,1.441,10.51,10.51,0,0,1-16.144-.007,1.124,1.124,0,0,1,1.73-1.434Z" transform="translate(1175.168 3582.438)" fill="#3e5b6e"/></g></svg>