<svg xmlns="http://www.w3.org/2000/svg" width="114.162" height="114.16" viewBox="0 0 114.162 114.16"><path d="M2.4,87.324,28.239,61.482a16.386,16.386,0,0,1,18.846-3.067L70.61,34.89v-13.7L98.857,0l14.124,14.124L91.8,42.371h-13.7L54.566,65.9A16.421,16.421,0,0,1,51.5,84.742L25.657,110.584a8.2,8.2,0,0,1-11.63,0L2.4,98.954a8.245,8.245,0,0,1,0-11.63Zm37.383-37.67a23.218,23.218,0,0,0-16.529,6.841L18.97,60.776A31.238,31.238,0,0,1,9.3,54.266,31.737,31.737,0,0,1,.941,24.1a2.642,2.642,0,0,1,4.436-1.214L21.8,39.3,36.779,36.81l2.494-14.984L22.854,5.407A2.664,2.664,0,0,1,24.112.949,31.79,31.79,0,0,1,54.257,9.313a31.273,31.273,0,0,1,9.092,22.863L45.231,50.293a24.04,24.04,0,0,0-5.451-.64Zm22.929,18.1L75.222,55.237l33.632,33.654a14.122,14.122,0,0,1-19.972,19.972L61.606,81.586a23.7,23.7,0,0,0,1.1-13.837Zm36.148,36.412a5.3,5.3,0,1,0-5.3-5.3A5.312,5.312,0,0,0,98.857,104.162Z" transform="translate(0.521 0.66)" fill="#fff" stroke="#3e5b6e" stroke-width="1"/></svg>